<svg width="21" height="17" viewBox="0 0 21 17" fill="none" xmlns="http://www.w3.org/2000/svg">
<path d="M20.608 3.944C20.64 4.008 20.672 4.072 20.704 4.136C20.736 4.184 20.76 4.24 20.776 4.304H19.888C19.92 4.368 19.952 4.448 19.984 4.544C20.016 4.624 20.048 4.704 20.08 4.784H16.312L16.456 5.264H18.4L18.472 5.624H18.208C18.224 5.656 18.232 5.696 18.232 5.744C18.232 5.792 18.24 5.832 18.256 5.864H17.608L17.632 6.104H18.136C18.136 6.168 18.136 6.232 18.136 6.296C18.152 6.344 18.16 6.4 18.16 6.464H19.048C19.064 6.528 19.072 6.584 19.072 6.632C19.072 6.68 19.072 6.736 19.072 6.8V6.824H16.816C16.816 6.904 16.816 6.984 16.816 7.064C16.832 7.144 16.84 7.224 16.84 7.304H17.344C17.344 7.384 17.344 7.464 17.344 7.544C17.36 7.624 17.368 7.704 17.368 7.784H18.232V7.904H17.896V8.384H17.992V8.744H19.408V9.224H18.064V9.464H17.92C17.92 9.496 17.92 9.536 17.92 9.584C17.92 9.632 17.912 9.672 17.896 9.704H17.464V10.184H17.512C17.496 10.232 17.488 10.296 17.488 10.376V10.424H18.376C18.376 10.488 18.368 10.552 18.352 10.616C18.352 10.664 18.352 10.72 18.352 10.784H18.712C18.712 10.864 18.704 10.944 18.688 11.024C18.688 11.104 18.68 11.184 18.664 11.264H18.136C18.12 11.296 18.112 11.336 18.112 11.384C18.112 11.432 18.104 11.472 18.088 11.504H15.208C15.208 11.568 15.192 11.648 15.16 11.744H17.68C17.648 11.84 17.632 11.92 17.632 11.984H17.992C17.976 12.048 17.96 12.112 17.944 12.176C17.944 12.224 17.928 12.28 17.896 12.344L17.824 12.584H17.128L17.08 12.704H18.208C18.176 12.768 18.16 12.808 18.16 12.824H17.44L17.392 12.944H17.368C17.336 13.024 17.304 13.104 17.272 13.184C17.24 13.264 17.2 13.344 17.152 13.424H16.792L16.528 13.904H16.936L16.792 14.144H16.816C16.784 14.176 16.752 14.216 16.72 14.264C16.688 14.312 16.656 14.352 16.624 14.384H16.456C16.408 14.432 16.376 14.472 16.36 14.504C16.312 14.568 16.264 14.632 16.216 14.696C16.168 14.744 16.112 14.8 16.048 14.864H15.976C15.896 14.944 15.808 15.024 15.712 15.104C15.632 15.184 15.544 15.264 15.448 15.344H15.664L15.16 15.704H15.184C15.056 15.784 14.92 15.864 14.776 15.944C14.632 16.024 14.48 16.104 14.32 16.184H14.296C14.136 16.264 13.936 16.344 13.696 16.424H13.72C13.4 16.536 13.064 16.632 12.712 16.712C12.36 16.792 12 16.856 11.632 16.904H12.136C11.88 16.936 11.616 16.96 11.344 16.976C11.072 16.992 10.792 17 10.504 17H3.472C3.328 17 3.216 16.968 3.136 16.904H2.632C2.472 16.808 2.376 16.648 2.344 16.424H2.32V16.184H2.368V15.704H2.32V15.344H2.128V14.864H2.2V14.504H2.176V14.384H2.368V14.144H2.344V13.904H1.912V13.424H2.296V12.944H2.32V12.824H3.04V12.704H1.936V12.584H2.632V11.984H2.296V11.744H2.272V11.504H2.896V11.264H0.136V10.784H0.0399999V10.424H0.352V10.184H1.336V9.704H1.96V9.464H2.32V9.224H2.704V8.744H3.256V8.384H3.784V7.904H2.176V7.784H1.648V7.304H0.592V6.824H3.328V6.464H1.216V6.104H2.368V5.864H2.32V5.624H2.128V5.264H1.096V4.784H4.84V4.304H5.728V3.944H1.408V3.464H4.24V3.344H2.008V3.224H6.544V2.744H5.968V2.624H0.256V2.144H0.952V1.784H2.44V1.664H3.232V1.424H2.8V1.304H2.296V1.064H2.344V0.847999C2.344 0.816 2.344 0.791999 2.344 0.775999C2.36 0.743999 2.368 0.719999 2.368 0.704H2.464C2.544 0.367999 2.76 0.199999 3.112 0.199999H10.024C11.256 0.199999 12.376 0.367999 13.384 0.704H13.288C13.576 0.799999 13.872 0.919999 14.176 1.064H14.128C14.208 1.096 14.288 1.136 14.368 1.184C14.464 1.216 14.544 1.256 14.608 1.304H15.112L15.328 1.424H15.736C15.816 1.456 15.88 1.496 15.928 1.544C15.992 1.592 16.056 1.632 16.12 1.664H15.328C15.36 1.68 15.392 1.696 15.424 1.712C15.456 1.728 15.48 1.752 15.496 1.784H14.008L14.464 2.144H13.744C13.92 2.288 14.08 2.448 14.224 2.624H19.936C19.952 2.64 19.968 2.656 19.984 2.672C20 2.688 20.016 2.712 20.032 2.744H20.632C20.696 2.808 20.76 2.888 20.824 2.984C20.888 3.064 20.944 3.144 20.992 3.224H16.456C16.472 3.24 16.488 3.256 16.504 3.272C16.52 3.288 16.536 3.312 16.552 3.344H18.784L18.856 3.464H16.024C16.136 3.624 16.224 3.784 16.288 3.944H20.608ZM12.136 5.624C12.04 5.48 11.92 5.36 11.776 5.264H9.832C9.48 5.008 9.048 4.88 8.536 4.88H7.096V5.264H8.128V5.624H8.32V5.864H8.368V6.104H7.216V6.464H9.328V6.824H6.592V7.304H7.648V7.784H8.176V7.904H9.784V8.384H9.256V8.744H8.704V9.224H8.32V9.464H7.96V9.704H7.336V10.184H6.352V10.424H6.04V10.784H6.136V11.264H8.896V11.504H8.272V11.744H8.296V11.984H8.632V12.32H10.192C10.656 12.32 11.048 12.208 11.368 11.984H10.984C11.032 11.952 11.08 11.92 11.128 11.888C11.176 11.84 11.216 11.792 11.248 11.744H8.752C8.784 11.712 8.816 11.68 8.848 11.648C8.88 11.6 8.904 11.552 8.92 11.504H11.8C11.832 11.472 11.856 11.44 11.872 11.408C11.888 11.36 11.904 11.312 11.92 11.264H12.472C12.504 11.184 12.528 11.104 12.544 11.024C12.56 10.944 12.576 10.864 12.592 10.784H12.232C12.248 10.72 12.256 10.664 12.256 10.616C12.256 10.552 12.264 10.488 12.28 10.424H11.392V10.376C11.392 10.344 11.392 10.312 11.392 10.28C11.408 10.248 11.416 10.216 11.416 10.184H11.368C11.368 10.104 11.368 10.024 11.368 9.944C11.368 9.848 11.376 9.768 11.392 9.704H11.824V9.464H11.968L11.992 9.224H13.336V8.744H11.92V8.384H11.824V7.904H12.16V7.784H11.272V7.304H10.744C10.744 7.224 10.744 7.144 10.744 7.064C10.744 6.984 10.736 6.904 10.72 6.824H12.976V6.8C12.976 6.736 12.968 6.68 12.952 6.632C12.952 6.568 12.952 6.512 12.952 6.464H12.064C12.048 6.4 12.032 6.344 12.016 6.296C12 6.232 11.984 6.168 11.968 6.104H11.464C11.448 6.056 11.432 6.016 11.416 5.984C11.4 5.936 11.384 5.896 11.368 5.864H12.016C12 5.816 11.976 5.776 11.944 5.744C11.928 5.696 11.904 5.656 11.872 5.624H12.136Z" fill="white" />
</svg>
